<!DOCTYPE svg PUBLIC "-//W3C//DTD SVG 1.1//EN" "http://www.w3.org/Graphics/SVG/1.1/DTD/svg11.dtd">
<!-- Uploaded to: SVG Repo, www.svgrepo.com, Transformed by: SVG Repo Mixer Tools -->
<svg fill="#ffffff" height="800px" width="800px" version="1.1" id="Layer_1" xmlns="http://www.w3.org/2000/svg" xmlns:xlink="http://www.w3.org/1999/xlink" viewBox="-36 -36 432.00 432.00" xml:space="preserve" stroke="#ffffff">
<g id="SVGRepo_bgCarrier" stroke-width="0">
<rect x="-36" y="-36" width="432.00" height="432.00" rx="216" fill="#000000" strokewidth="0"/>
</g>
<g id="SVGRepo_tracerCarrier" stroke-linecap="round" stroke-linejoin="round"/>
<g id="SVGRepo_iconCarrier"> <g id="XMLID_240_"> <g> <g> <path d="M245.489,140.199c0-46.394-37.744-84.137-84.137-84.137s-84.137,37.744-84.137,84.137s37.744,84.137,84.137,84.137 S245.489,186.593,245.489,140.199z M161.352,204.336c-35.365,0-64.137-28.772-64.137-64.137s28.772-64.137,64.137-64.137 c35.365,0,64.137,28.772,64.137,64.137C225.489,175.564,196.717,204.336,161.352,204.336z"/> <path d="M286.687,208.043c10.762-20.245,16.432-42.983,16.432-66.276C303.119,63.597,239.522,0,161.352,0 S19.584,63.597,19.584,141.768c0,32.255,10.571,62.633,30.57,87.85C75.966,262.163,151,339.407,154.182,342.679l7.169,7.375 l7.17-7.374c0.128-0.131,10.882-11.195,25.53-26.565c11.513,17.035,29.948,29.011,51.229,31.906V360h20v-11.979 c32.733-4.453,58.703-30.423,63.156-63.156h11.979v-20h-11.978C325.012,239.687,308.862,218.508,286.687,208.043z M182.125,284.865c0.559,4.11,1.439,8.119,2.647,11.987c-9.528,10.032-17.867,18.713-23.419,24.471 c-19.765-20.503-74.91-78.137-95.528-104.134c-17.167-21.645-26.24-47.725-26.24-75.422C39.584,74.625,94.208,20,161.352,20 c67.143,0,121.767,54.625,121.767,121.768c0,21.302-5.505,42.047-15.927,60.22c-0.634-0.103-1.272-0.192-1.911-0.279v-11.98h-20 v11.98c-32.733,4.453-58.702,30.422-63.156,63.156h-11.979v20H182.125z M308.187,284.865 c-4.091,21.687-21.219,38.815-42.906,42.906v-10.338h-20v10.338c-21.687-4.091-38.814-21.219-42.905-42.906h10.338v-20h-10.338 c4.091-21.687,21.218-38.814,42.905-42.905v10.338h20V221.96c21.687,4.091,38.815,21.218,42.906,42.905h-10.338v20H308.187z"/> </g> </g> </g> </g>
</svg>