<svg id="visual" viewBox="0 0 900 600" width="900" height="600" xmlns="http://www.w3.org/2000/svg" xmlns:xlink="http://www.w3.org/1999/xlink" version="1.1"><rect x="0" y="0" width="900" height="600" fill="#ffffff"></rect><path d="M0 401L21.5 397.2C43 393.3 86 385.7 128.8 393.7C171.7 401.7 214.3 425.3 257.2 425.5C300 425.7 343 402.3 385.8 386.5C428.7 370.7 471.3 362.3 514.2 360.3C557 358.3 600 362.7 642.8 373.7C685.7 384.7 728.3 402.3 771.2 408.5C814 414.7 857 409.3 878.5 406.7L900 404L900 601L878.5 601C857 601 814 601 771.2 601C728.3 601 685.7 601 642.8 601C600 601 557 601 514.2 601C471.3 601 428.7 601 385.8 601C343 601 300 601 257.2 601C214.3 601 171.7 601 128.8 601C86 601 43 601 21.5 601L0 601Z" fill="#5699f4"></path><path d="M0 460L21.5 461.7C43 463.3 86 466.7 128.8 468.5C171.7 470.3 214.3 470.7 257.2 472.2C300 473.7 343 476.3 385.8 474.5C428.7 472.7 471.3 466.3 514.2 457.5C557 448.7 600 437.3 642.8 429C685.7 420.7 728.3 415.3 771.2 419C814 422.7 857 435.3 878.5 441.7L900 448L900 601L878.5 601C857 601 814 601 771.2 601C728.3 601 685.7 601 642.8 601C600 601 557 601 514.2 601C471.3 601 428.7 601 385.8 601C343 601 300 601 257.2 601C214.3 601 171.7 601 128.8 601C86 601 43 601 21.5 601L0 601Z" fill="#427cd7"></path><path d="M0 471L21.5 472.8C43 474.7 86 478.3 128.8 483.7C171.7 489 214.3 496 257.2 499.2C300 502.3 343 501.7 385.8 500.8C428.7 500 471.3 499 514.2 492.5C557 486 600 474 642.8 476C685.7 478 728.3 494 771.2 498.7C814 503.3 857 496.7 878.5 493.3L900 490L900 601L878.5 601C857 601 814 601 771.2 601C728.3 601 685.7 601 642.8 601C600 601 557 601 514.2 601C471.3 601 428.7 601 385.8 601C343 601 300 601 257.2 601C214.3 601 171.7 601 128.8 601C86 601 43 601 21.5 601L0 601Z" fill="#2f60ba"></path><path d="M0 519L21.5 522.7C43 526.3 86 533.7 128.8 535.8C171.7 538 214.3 535 257.2 526.2C300 517.3 343 502.7 385.8 496.5C428.7 490.3 471.3 492.7 514.2 496.7C557 500.7 600 506.3 642.8 509.5C685.7 512.7 728.3 513.3 771.2 509.3C814 505.3 857 496.7 878.5 492.3L900 488L900 601L878.5 601C857 601 814 601 771.2 601C728.3 601 685.7 601 642.8 601C600 601 557 601 514.2 601C471.3 601 428.7 601 385.8 601C343 601 300 601 257.2 601C214.3 601 171.7 601 128.8 601C86 601 43 601 21.5 601L0 601Z" fill="#1b459d"></path><path d="M0 547L21.5 550.5C43 554 86 561 128.8 562.2C171.7 563.3 214.3 558.7 257.2 554C300 549.3 343 544.7 385.8 543.7C428.7 542.7 471.3 545.3 514.2 544.5C557 543.7 600 539.3 642.8 536.3C685.7 533.3 728.3 531.7 771.2 530.8C814 530 857 530 878.5 530L900 530L900 601L878.5 601C857 601 814 601 771.2 601C728.3 601 685.7 601 642.8 601C600 601 557 601 514.2 601C471.3 601 428.7 601 385.8 601C343 601 300 601 257.2 601C214.3 601 171.7 601 128.8 601C86 601 43 601 21.5 601L0 601Z" fill="#002b81"></path></svg>