<svg width="566" height="119" viewBox="0 0 566 119" fill="none" xmlns="http://www.w3.org/2000/svg">
<path d="M0.09375 48.4375C2.28125 48.6875 4.125 48.875 5.625 49C7.125 49.0625 8.3125 49.125 9.1875 49.1875C10.25 49.25 11.0938 49.2812 11.7188 49.2812C12.7812 49.2812 14 49.25 15.375 49.1875C16.5625 49.125 17.9375 49.0312 19.5 48.9062C21.125 48.7188 22.875 48.4375 24.75 48.0625C23.875 49 23.1562 49.9062 22.5938 50.7812C22.0312 51.5938 21.5938 52.3438 21.2812 53.0312C20.9062 53.7812 20.5938 54.4688 20.3438 55.0938C20.0938 55.9062 19.8125 57.1562 19.5 58.8438C19.1875 60.2812 18.8438 62.3125 18.4688 64.9375C18.1562 67.5625 17.75 71 17.25 75.25C19.375 75.3125 21.2188 75.3438 22.7812 75.3438C24.3438 75.2812 25.6562 75.25 26.7188 75.25H29.8125C30.6875 75.1875 31.6875 75.125 32.8125 75.0625C34.6875 75 37.5312 74.8125 41.3438 74.5C41.6562 71.625 41.8125 69.1562 41.8125 67.0938C41.875 64.9688 41.8438 63.1875 41.7188 61.75C41.5938 60.125 41.4062 58.75 41.1562 57.625C40.9688 57 40.6875 56.25 40.3125 55.375C40 54.625 39.5625 53.7188 39 52.6562C38.5 51.5312 37.8125 50.1875 36.9375 48.625C38.5625 48.875 40 49.0625 41.25 49.1875C42.5625 49.25 43.6562 49.3125 44.5312 49.375C45.5312 49.4375 46.375 49.4688 47.0625 49.4688C47.75 49.4688 48.6562 49.4375 49.7812 49.375C50.7188 49.3125 51.875 49.2812 53.25 49.2812C54.625 49.2188 56.3125 49.125 58.3125 49C57.8125 49.875 57.375 50.7812 57 51.7188C56.625 52.6562 56.3125 53.5 56.0625 54.25C55.8125 55.125 55.5625 56 55.3125 56.875C55 58.1875 54.7188 60.0938 54.4688 62.5938C54.2812 65.0938 54.0938 67.875 53.9062 70.9375C53.7812 74 53.6562 77.1875 53.5312 80.5C53.4688 83.8125 53.4062 86.9375 53.3438 89.875C53.3438 92.8125 53.375 95.4375 53.4375 97.75C53.5 100 53.625 101.594 53.8125 102.531C54 103.656 54.3125 104.812 54.75 106C55.125 107.062 55.625 108.219 56.25 109.469C56.875 110.656 57.6875 111.781 58.6875 112.844L36.0938 114.531C37.0312 113.656 37.7812 112.812 38.3438 112C38.9062 111.125 39.3438 110.375 39.6562 109.75C39.9688 109.062 40.1875 108.406 40.3125 107.781C40.375 107.031 40.4688 105.719 40.5938 103.844C40.7188 102.281 40.8438 100.062 40.9688 97.1875C41.0938 94.3125 41.2188 90.5 41.3438 85.75C40.4688 85.75 39.4062 85.7812 38.1562 85.8438C36.9688 85.8438 35.8438 85.875 34.7812 85.9375C33.5312 86 32.2188 86.0312 30.8438 86.0312C29.4688 86.0938 28.0312 86.1562 26.5312 86.2188C25.2812 86.3438 23.875 86.4688 22.3125 86.5938C20.8125 86.6562 19.3125 86.75 17.8125 86.875C17.6875 89.5 17.6875 91.8125 17.8125 93.8125C17.9375 95.75 18.125 97.4062 18.375 98.7812C18.625 100.406 18.9375 101.812 19.3125 103C19.6875 104.125 20.0938 105.25 20.5312 106.375C20.9062 107.375 21.3438 108.438 21.8438 109.562C22.4062 110.688 22.9688 111.688 23.5312 112.562C22.3438 112.438 21.25 112.344 20.25 112.281C19.25 112.156 18.375 112.031 17.625 111.906C16.75 111.844 15.9062 111.781 15.0938 111.719C14.2812 111.719 13.3125 111.688 12.1875 111.625C11.1875 111.562 9.9375 111.531 8.4375 111.531C6.9375 111.469 5.1875 111.438 3.1875 111.438C4.375 110.25 5.3125 109.094 6 107.969C6.75 106.781 7.28125 105.719 7.59375 104.781C7.96875 103.656 8.21875 102.625 8.34375 101.688C8.40625 100.875 8.4375 99.3438 8.4375 97.0938C8.5 94.8438 8.5 92.2812 8.4375 89.4062C8.4375 86.4688 8.40625 83.4062 8.34375 80.2188C8.28125 76.9688 8.1875 73.9375 8.0625 71.125C8 68.3125 7.90625 65.9062 7.78125 63.9062C7.71875 61.8438 7.65625 60.5625 7.59375 60.0625C7.28125 58.9375 6.8125 57.7188 6.1875 56.4062C5.625 55.3438 4.875 54.125 3.9375 52.75C3 51.3125 1.71875 49.875 0.09375 48.4375ZM60.5625 50.4062C62.6875 50.6562 64.4688 50.8438 65.9062 50.9688C67.4062 51.0312 68.625 51.125 69.5625 51.25C70.6875 51.375 71.5625 51.4375 72.1875 51.4375C72.875 51.5 73.9062 51.4688 75.2812 51.3438C76.4688 51.2188 78.0625 51.0625 80.0625 50.875C82.125 50.6875 84.75 50.4062 87.9375 50.0312C86.5 51.2812 85.3438 52.5 84.4688 53.6875C83.6562 54.8125 83.0312 55.8125 82.5938 56.6875C82.0312 57.75 81.6875 58.75 81.5625 59.6875C81.3125 61.1875 81.0938 63.25 80.9062 65.875C80.7812 68.4375 80.6562 71.25 80.5312 74.3125C80.4062 77.375 80.3438 80.5312 80.3438 83.7812C80.3438 87.0312 80.375 90.125 80.4375 93.0625C80.5625 95.9375 80.75 98.5 81 100.75C81.3125 103 81.6875 104.625 82.125 105.625C82.75 106.75 83.4062 107.875 84.0938 109C84.7188 109.938 85.4688 110.906 86.3438 111.906C87.2188 112.906 88.2188 113.719 89.3438 114.344C85.6562 114.156 82.7188 114.062 80.5312 114.062H77.1562C76.1562 114.062 74.875 114.125 73.3125 114.25C72 114.375 70.3438 114.5 68.3438 114.625C66.3438 114.75 63.9375 114.938 61.125 115.188C62.5625 113.625 63.6875 112.125 64.5 110.688C65.3125 109.25 65.9688 108 66.4688 106.938C67.0312 105.688 67.4062 104.5 67.5938 103.375C67.8438 101.75 68.0312 99.75 68.1562 97.375C68.3438 94.9375 68.4688 92.3438 68.5312 89.5938C68.5938 86.7812 68.5938 83.9375 68.5312 81.0625C68.5312 78.125 68.4688 75.3125 68.3438 72.625C68.2188 69.9375 68.0312 67.5 67.7812 65.3125C67.5938 63.125 67.3438 61.375 67.0312 60.0625C66.8438 59.25 66.4688 58.3438 65.9062 57.3438C65.4062 56.4688 64.7188 55.4688 63.8438 54.3438C63.0312 53.1562 61.9375 51.8438 60.5625 50.4062ZM87.8438 48.1562C90.0312 48.4688 91.9375 48.7188 93.5625 48.9062C95.1875 49.0938 96.5312 49.25 97.5938 49.375C98.8438 49.5 99.9062 49.5938 100.781 49.6562C101.781 49.7812 103 49.7188 104.438 49.4688C105.938 49.2188 107.531 48.9688 109.219 48.7188C110.906 48.4062 112.656 48.1562 114.469 47.9688C116.281 47.7812 118.031 47.7812 119.719 47.9688C120.844 48.0938 122.281 48.3438 124.031 48.7188C125.781 49.0938 127.625 49.6875 129.562 50.5C131.562 51.3125 133.562 52.375 135.562 53.6875C137.562 55 139.375 56.6562 141 58.6562C142.625 60.6562 143.969 63.0312 145.031 65.7812C146.094 68.5312 146.688 71.75 146.812 75.4375C147 80.9375 146.5 85.9375 145.312 90.4375C144.125 94.9375 142.281 98.7812 139.781 101.969C137.344 105.156 134.25 107.656 130.5 109.469C126.75 111.281 122.375 112.281 117.375 112.469C113.562 112.781 109.812 113.062 106.125 113.312C104.562 113.438 102.906 113.531 101.156 113.594C99.4688 113.656 97.7812 113.719 96.0938 113.781C94.4062 113.781 92.7812 113.75 91.2188 113.688C89.6562 113.625 88.2188 113.531 86.9062 113.406C88.3438 112.719 89.5 112.031 90.375 111.344C91.3125 110.656 92.0312 110.062 92.5312 109.562C93.0938 108.938 93.5 108.375 93.75 107.875C93.875 107.188 94.0625 105.844 94.3125 103.844C94.5 102.156 94.75 99.75 95.0625 96.625C95.375 93.5 95.75 89.25 96.1875 83.875L96.75 77.2188C97.0625 73.0938 97.1875 69.7188 97.125 67.0938C97.125 64.4688 97.0625 62.4062 96.9375 60.9062C96.75 59.1562 96.5 57.875 96.1875 57.0625C95.9375 56.375 95.4688 55.5625 94.7812 54.625C94.1562 53.875 93.2812 52.9688 92.1562 51.9062C91.0938 50.7812 89.6562 49.5312 87.8438 48.1562ZM107.625 82.6562C107.75 88.2188 108.031 92.5 108.469 95.5C108.969 98.4375 109.5 100.625 110.062 102.062C110.75 103.688 111.5 104.656 112.312 104.969C113.5 104.969 114.844 104.469 116.344 103.469C117.844 102.406 119.312 100.812 120.75 98.6875C122.25 96.5625 123.594 93.9062 124.781 90.7188C126.031 87.5312 126.938 83.8125 127.5 79.5625C128.062 75.3125 127.906 71.5625 127.031 68.3125C126.156 65.0625 125 62.3438 123.562 60.1562C122.125 57.9062 120.656 56.2188 119.156 55.0938C117.656 53.9062 116.531 53.3125 115.781 53.3125C114.906 53.3125 114.125 53.5625 113.438 54.0625C112.75 54.5 111.781 55.5312 110.531 57.1562C109.906 58.0312 109.344 59.2812 108.844 60.9062C108.406 62.3438 108.031 64.25 107.719 66.625C107.406 69 107.312 72.0625 107.438 75.8125L107.625 82.6562ZM144 50.9688C148.375 51.0938 152 51.1875 154.875 51.25C157.812 51.25 160.188 51.25 162 51.25H166.969H194.906C195.031 52.5 195.125 53.7188 195.188 54.9062C195.312 56.0312 195.375 57.0312 195.375 57.9062C195.375 58.9688 195.344 59.9375 195.281 60.8125C195.219 61.6875 195.125 62.625 195 63.625C194.875 64.5 194.75 65.4375 194.625 66.4375C194.5 67.4375 194.281 68.4688 193.969 69.5312C193.094 66.1562 191.906 63.5938 190.406 61.8438C188.969 60.0938 187.5 58.8125 186 58C184.25 57.0625 182.406 56.5625 180.469 56.5C177.906 56.625 175.906 56.8438 174.469 57.1562C173.031 57.4688 171.906 57.9062 171.094 58.4688C170.281 59.0312 169.656 59.6875 169.219 60.4375C168.844 61.125 168.438 61.9062 168 62.7812C167.625 63.5312 167.281 64.6875 166.969 66.25C166.656 67.5625 166.344 69.3438 166.031 71.5938C165.781 73.8438 165.5 76.75 165.188 80.3125C166.875 79.8125 168.219 79.3438 169.219 78.9062C170.281 78.4688 171.125 78.0938 171.75 77.7812C172.438 77.4062 172.938 77.0625 173.25 76.75C173.5 76.375 173.875 75.6875 174.375 74.6875C174.75 73.8125 175.25 72.625 175.875 71.125C176.562 69.625 177.375 67.5625 178.312 64.9375C178.438 67.8125 178.5 70.2188 178.5 72.1562C178.5 74.0312 178.531 75.5625 178.594 76.75C178.594 78.125 178.625 79.2188 178.688 80.0312V83.5938C178.688 84.9062 178.688 86.6875 178.688 88.9375C178.75 91.125 178.844 93.9062 178.969 97.2812C178.219 94.9688 177.531 93.1562 176.906 91.8438C176.344 90.4688 175.844 89.4375 175.406 88.75C174.906 87.9375 174.469 87.375 174.094 87.0625C173.656 86.9375 173.062 86.8125 172.312 86.6875C171.625 86.625 170.75 86.5938 169.688 86.5938C168.688 86.5938 167.406 86.75 165.844 87.0625C165.656 90.5 165.625 93.2812 165.75 95.4062C165.938 97.4688 166.188 99.0625 166.5 100.188C166.812 101.5 167.188 102.438 167.625 103C168.188 103.562 169.312 104.031 171 104.406C172.688 104.719 174.594 104.844 176.719 104.781C178.906 104.656 181.125 104.281 183.375 103.656C185.625 103.031 187.625 102 189.375 100.562C190.688 99.375 192.094 97.875 193.594 96.0625C194.844 94.5 196.219 92.5312 197.719 90.1562C199.281 87.7812 200.812 84.9062 202.312 81.5312C202.062 84.3438 201.875 86.6875 201.75 88.5625C201.688 90.375 201.594 91.8438 201.469 92.9688C201.344 94.2812 201.25 95.2812 201.188 95.9688C201.188 96.7188 201.094 97.7812 200.906 99.1562C200.781 100.344 200.562 101.969 200.25 104.031C200 106.031 199.656 108.594 199.219 111.719C196.281 111.781 193.5 111.844 190.875 111.906C188.25 111.906 185.938 111.938 183.938 112C181.562 112.062 179.375 112.125 177.375 112.188C175.312 112.188 173.031 112.281 170.531 112.469C168.344 112.594 165.75 112.781 162.75 113.031C159.812 113.281 156.562 113.625 153 114.062C153.312 109.812 153.531 105.812 153.656 102.062C153.844 98.25 153.969 94.9062 154.031 92.0312C154.094 88.6562 154.094 85.5312 154.031 82.6562C154.344 75.4688 154.219 69.6562 153.656 65.2188C153.094 60.7812 152.438 57.9375 151.688 56.6875C151.312 56.25 150.781 55.7188 150.094 55.0938C149.531 54.5938 148.75 54 147.75 53.3125C146.75 52.625 145.5 51.8438 144 50.9688ZM274.031 79C275.281 79.0625 276.5 79.0938 277.688 79.0938C278.875 79.0312 279.938 78.9688 280.875 78.9062C281.938 78.8438 282.938 78.75 283.875 78.625L287.531 78.3438C288.781 78.2812 290.312 78.2188 292.125 78.1562C293.938 78.0938 296.125 78.0312 298.688 77.9688C297.312 78.4688 296.125 79.0312 295.125 79.6562C294.188 80.2812 293.406 80.8438 292.781 81.3438C292.094 81.9688 291.5 82.5625 291 83.125C290.438 83.875 289.844 84.8438 289.219 86.0312C288.656 87.1562 288.031 88.3438 287.344 89.5938C286.656 90.8438 285.906 92.125 285.094 93.4375C284.344 94.6875 283.5 95.8125 282.562 96.8125C282 97.4375 281.406 98.0938 280.781 98.7812C280.281 99.4062 279.688 100.094 279 100.844C278.312 101.594 277.625 102.312 276.938 103C278.5 104.75 279.906 106.219 281.156 107.406C282.469 108.594 283.562 109.531 284.438 110.219C285.5 111.094 286.406 111.781 287.156 112.281C287.906 112.781 288.781 113.281 289.781 113.781C290.594 114.219 291.562 114.688 292.688 115.188C293.812 115.688 295.062 116.188 296.438 116.688C289.5 117.188 284.125 117.531 280.312 117.719C276.5 117.969 273.719 118.156 271.969 118.281C269.906 118.469 268.656 118.562 268.219 118.562C268.094 118.625 268.219 118.5 268.594 118.188C268.969 117.938 269.406 117.562 269.906 117.062C270.406 116.625 270.875 116.094 271.312 115.469C271.75 114.906 271.969 114.312 271.969 113.688C271.969 113.188 271.938 112.656 271.875 112.094C271.812 111.594 271.719 111.031 271.594 110.406C271.469 109.781 271.25 109.125 270.938 108.438C269.688 110.438 268.125 111.938 266.25 112.938C264.375 113.938 262.562 114.656 260.812 115.094C258.75 115.594 256.656 115.812 254.531 115.75C248.781 115.375 244.812 113.906 242.625 111.344C240.5 108.781 239.594 105.031 239.906 100.094C240.156 98.1562 240.75 96.0312 241.688 93.7188C242.5 91.7188 243.688 89.4375 245.25 86.875C246.875 84.3125 249.156 81.5312 252.094 78.5312C248.969 74.9062 246.625 71.6562 245.062 68.7812C243.562 65.8438 242.5 63.3438 241.875 61.2812C241.188 58.8438 240.906 56.7188 241.031 54.9062C241.469 52.0938 242.281 50 243.469 48.625C244.719 47.25 246.125 46.3125 247.688 45.8125C249.312 45.3125 251.031 45.0625 252.844 45.0625C254.656 45.0625 256.344 45 257.906 44.875C259.469 44.75 261.25 44.7812 263.25 44.9688C265.312 45.0938 267.281 45.4062 269.156 45.9062C271.031 46.3438 272.688 47 274.125 47.875C275.562 48.6875 276.5 49.7188 276.938 50.9688C277.375 52.2188 277.688 53.4375 277.875 54.625C278.062 55.75 278 56.9375 277.688 58.1875C277.438 59.4375 276.844 60.7812 275.906 62.2188C274.969 63.5938 273.625 65.125 271.875 66.8125C270.562 68.25 269.25 69.625 267.938 70.9375C266.812 72.0625 265.562 73.25 264.188 74.5C262.812 75.75 261.5 76.8438 260.25 77.7812C260.875 78.9688 261.531 80.125 262.219 81.25C262.906 82.3125 263.531 83.2812 264.094 84.1562C264.781 85.2188 265.438 86.2188 266.062 87.1562C266.812 88.4062 267.594 89.625 268.406 90.8125C269.281 92 270.062 93.0312 270.75 93.9062C271.5 94.7812 272.125 95.4688 272.625 95.9688C273.125 96.4688 273.438 96.6562 273.562 96.5312C273.625 96.4062 273.906 95.8125 274.406 94.75C274.969 93.6875 275.562 92.5 276.188 91.1875C276.875 89.8125 277.469 88.4688 277.969 87.1562C278.531 85.8438 278.875 84.875 279 84.25C278.938 83.75 278.75 83.1875 278.438 82.5625C278.125 82.0625 277.625 81.5312 276.938 80.9688C276.312 80.3438 275.344 79.6875 274.031 79ZM255.844 71.0312C258.969 67.4688 261.25 64.5938 262.688 62.4062C264.125 60.2188 265.094 58.5 265.594 57.25C266.219 55.8125 266.375 54.75 266.062 54.0625C265.5 53.375 264.625 52.75 263.438 52.1875C262.25 51.625 260.969 51.3438 259.594 51.3438C258.219 51.2812 256.812 51.5625 255.375 52.1875C254 52.75 252.812 53.875 251.812 55.5625C251.438 56.375 251.312 57.5 251.438 58.9375C251.562 60.1875 251.906 61.7812 252.469 63.7188C253.094 65.6562 254.219 68.0938 255.844 71.0312ZM253.969 100.375C254.781 101.562 255.781 102.375 256.969 102.812C258.031 103.25 259.375 103.344 261 103.094C262.688 102.844 264.719 101.906 267.094 100.281C266.156 99.0312 265.344 97.9062 264.656 96.9062C263.969 95.8438 263.375 94.9688 262.875 94.2812C262.312 93.4688 261.844 92.7812 261.469 92.2188C261.094 91.6562 260.625 90.9688 260.062 90.1562C259.562 89.4688 258.969 88.625 258.281 87.625C257.594 86.625 256.781 85.4375 255.844 84.0625C253.844 86.4375 252.562 88.9688 252 91.6562C251.5 94.2812 252.156 97.1875 253.969 100.375ZM382.5 46.375C381.625 48.375 380.844 50.125 380.156 51.625C379.469 53.125 378.875 54.4062 378.375 55.4688C377.812 56.6562 377.344 57.7188 376.969 58.6562C376.656 59.3438 376.25 60.2812 375.75 61.4688C375.25 62.5312 374.625 63.9375 373.875 65.6875C373.188 67.375 372.281 69.5625 371.156 72.25C370.594 69.9375 369.906 67.9062 369.094 66.1562C368.281 64.4062 367.406 62.875 366.469 61.5625C365.531 60.25 364.531 59.1875 363.469 58.375C362.469 57.5 361.469 56.7812 360.469 56.2188C358.156 54.9688 355.719 54.2812 353.156 54.1562C349.781 54.3438 347.125 54.9062 345.188 55.8438C343.312 56.7188 341.938 57.75 341.062 58.9375C340.188 60.0625 339.719 61.25 339.656 62.5C339.594 63.6875 339.75 64.6875 340.125 65.5C340.438 66.25 341.531 67.125 343.406 68.125C345.344 69.125 347.656 70.2812 350.344 71.5938C353.094 72.8438 356.031 74.2812 359.156 75.9062C362.281 77.4688 365.156 79.2188 367.781 81.1562C370.469 83.0312 372.719 85.0938 374.531 87.3438C376.406 89.5312 377.438 91.875 377.625 94.375C377.812 97.5625 377.781 100.438 377.531 103C377.281 105.562 376.406 107.75 374.906 109.562C373.406 111.375 371.062 112.812 367.875 113.875C364.75 114.938 360.406 115.594 354.844 115.844C349.094 116.094 344.375 115.781 340.688 114.906C337 114.031 334 112.844 331.688 111.344C329.438 109.844 327.75 108.188 326.625 106.375C325.562 104.562 324.781 102.844 324.281 101.219C323.781 99.5312 323.438 98.0938 323.25 96.9062C323.062 95.6562 322.75 94.9062 322.312 94.6562C321.812 94.3438 321.312 94.0625 320.812 93.8125C320.375 93.5625 319.906 93.3438 319.406 93.1562C318.906 92.9062 318.406 92.6875 317.906 92.5L345.188 88.0938C343.625 89.3438 342.406 90.5 341.531 91.5625C340.719 92.625 340.094 93.5625 339.656 94.375C339.156 95.3125 338.812 96.1875 338.625 97C338.5 97.875 338.781 98.9688 339.469 100.281C340.156 101.594 341.094 102.875 342.281 104.125C343.531 105.312 344.969 106.312 346.594 107.125C348.219 107.938 349.906 108.281 351.656 108.156C353.844 107.969 355.625 107.438 357 106.562C358.375 105.625 359.406 104.469 360.094 103.094C360.844 101.719 361.281 100.219 361.406 98.5938C361.531 96.9688 361.375 95.375 360.938 93.8125C360.562 92.1875 359.938 90.6875 359.062 89.3125C358.188 87.875 357.156 86.6875 355.969 85.75C354.906 85 353.25 84.2812 351 83.5938C348.812 82.9062 346.344 82.1562 343.594 81.3438C340.906 80.5312 338.125 79.5938 335.25 78.5312C332.438 77.4688 329.875 76.1562 327.562 74.5938C325.312 73.0312 323.5 71.1875 322.125 69.0625C320.812 66.9375 320.312 64.375 320.625 61.375C320.875 58.8125 321.688 56.6875 323.062 55C324.5 53.25 326.281 51.875 328.406 50.875C330.594 49.8125 333 49.0312 335.625 48.5312C338.312 48.0312 341.031 47.75 343.781 47.6875C346.594 47.5625 349.344 47.5938 352.031 47.7812C354.781 47.9688 357.25 48.1875 359.438 48.4375C361.625 48.6875 363.469 48.9375 364.969 49.1875C366.531 49.375 367.5 49.5 367.875 49.5625C369.5 49.6875 371.125 49.6562 372.75 49.4688C374.188 49.3438 375.75 49.0625 377.438 48.625C379.188 48.125 380.875 47.375 382.5 46.375ZM377.25 50.9688C381.625 51.0938 385.25 51.1875 388.125 51.25C391.062 51.25 393.438 51.25 395.25 51.25H400.219H428.156C428.281 52.5 428.375 53.7188 428.438 54.9062C428.562 56.0312 428.625 57.0312 428.625 57.9062C428.625 58.9688 428.594 59.9375 428.531 60.8125C428.469 61.6875 428.375 62.625 428.25 63.625C428.125 64.5 428 65.4375 427.875 66.4375C427.75 67.4375 427.531 68.4688 427.219 69.5312C426.344 66.1562 425.156 63.5938 423.656 61.8438C422.219 60.0938 420.75 58.8125 419.25 58C417.5 57.0625 415.656 56.5625 413.719 56.5C411.156 56.625 409.156 56.8438 407.719 57.1562C406.281 57.4688 405.156 57.9062 404.344 58.4688C403.531 59.0312 402.906 59.6875 402.469 60.4375C402.094 61.125 401.688 61.9062 401.25 62.7812C400.875 63.5312 400.531 64.6875 400.219 66.25C399.906 67.5625 399.594 69.3438 399.281 71.5938C399.031 73.8438 398.75 76.75 398.438 80.3125C400.125 79.8125 401.469 79.3438 402.469 78.9062C403.531 78.4688 404.375 78.0938 405 77.7812C405.688 77.4062 406.188 77.0625 406.5 76.75C406.75 76.375 407.125 75.6875 407.625 74.6875C408 73.8125 408.5 72.625 409.125 71.125C409.812 69.625 410.625 67.5625 411.562 64.9375C411.688 67.8125 411.75 70.2188 411.75 72.1562C411.75 74.0312 411.781 75.5625 411.844 76.75C411.844 78.125 411.875 79.2188 411.938 80.0312V83.5938C411.938 84.9062 411.938 86.6875 411.938 88.9375C412 91.125 412.094 93.9062 412.219 97.2812C411.469 94.9688 410.781 93.1562 410.156 91.8438C409.594 90.4688 409.094 89.4375 408.656 88.75C408.156 87.9375 407.719 87.375 407.344 87.0625C406.906 86.9375 406.312 86.8125 405.562 86.6875C404.875 86.625 404 86.5938 402.938 86.5938C401.938 86.5938 400.656 86.75 399.094 87.0625C398.906 90.5 398.875 93.2812 399 95.4062C399.188 97.4688 399.438 99.0625 399.75 100.188C400.062 101.5 400.438 102.438 400.875 103C401.438 103.562 402.562 104.031 404.25 104.406C405.938 104.719 407.844 104.844 409.969 104.781C412.156 104.656 414.375 104.281 416.625 103.656C418.875 103.031 420.875 102 422.625 100.562C423.938 99.375 425.344 97.875 426.844 96.0625C428.094 94.5 429.469 92.5312 430.969 90.1562C432.531 87.7812 434.062 84.9062 435.562 81.5312C435.312 84.3438 435.125 86.6875 435 88.5625C434.938 90.375 434.844 91.8438 434.719 92.9688C434.594 94.2812 434.5 95.2812 434.438 95.9688C434.438 96.7188 434.344 97.7812 434.156 99.1562C434.031 100.344 433.812 101.969 433.5 104.031C433.25 106.031 432.906 108.594 432.469 111.719C429.531 111.781 426.75 111.844 424.125 111.906C421.5 111.906 419.188 111.938 417.188 112C414.812 112.062 412.625 112.125 410.625 112.188C408.562 112.188 406.281 112.281 403.781 112.469C401.594 112.594 399 112.781 396 113.031C393.062 113.281 389.812 113.625 386.25 114.062C386.562 109.812 386.781 105.812 386.906 102.062C387.094 98.25 387.219 94.9062 387.281 92.0312C387.344 88.6562 387.344 85.5312 387.281 82.6562C387.594 75.4688 387.469 69.6562 386.906 65.2188C386.344 60.7812 385.688 57.9375 384.938 56.6875C384.562 56.25 384.031 55.7188 383.344 55.0938C382.781 54.5938 382 54 381 53.3125C380 52.625 378.75 51.8438 377.25 50.9688ZM433.688 50.9688C438.062 51.0938 441.688 51.1875 444.562 51.25C447.5 51.25 449.875 51.25 451.688 51.25H456.656H484.594C484.719 52.5 484.812 53.7188 484.875 54.9062C485 56.0312 485.062 57.0312 485.062 57.9062C485.062 58.9688 485.031 59.9375 484.969 60.8125C484.906 61.6875 484.812 62.625 484.688 63.625C484.562 64.5 484.438 65.4375 484.312 66.4375C484.188 67.4375 483.969 68.4688 483.656 69.5312C482.781 66.1562 481.594 63.5938 480.094 61.8438C478.656 60.0938 477.188 58.8125 475.688 58C473.938 57.0625 472.094 56.5625 470.156 56.5C467.594 56.625 465.594 56.8438 464.156 57.1562C462.719 57.4688 461.594 57.9062 460.781 58.4688C459.969 59.0312 459.344 59.6875 458.906 60.4375C458.531 61.125 458.125 61.9062 457.688 62.7812C457.312 63.5312 456.969 64.6875 456.656 66.25C456.344 67.5625 456.031 69.3438 455.719 71.5938C455.469 73.8438 455.188 76.75 454.875 80.3125C456.562 79.8125 457.906 79.3438 458.906 78.9062C459.969 78.4688 460.812 78.0938 461.438 77.7812C462.125 77.4062 462.625 77.0625 462.938 76.75C463.188 76.375 463.562 75.6875 464.062 74.6875C464.438 73.8125 464.938 72.625 465.562 71.125C466.25 69.625 467.062 67.5625 468 64.9375C468.125 67.8125 468.188 70.2188 468.188 72.1562C468.188 74.0312 468.219 75.5625 468.281 76.75C468.281 78.125 468.312 79.2188 468.375 80.0312V83.5938C468.375 84.9062 468.375 86.6875 468.375 88.9375C468.438 91.125 468.531 93.9062 468.656 97.2812C467.906 94.9688 467.219 93.1562 466.594 91.8438C466.031 90.4688 465.531 89.4375 465.094 88.75C464.594 87.9375 464.156 87.375 463.781 87.0625C463.344 86.9375 462.75 86.8125 462 86.6875C461.312 86.625 460.438 86.5938 459.375 86.5938C458.375 86.5938 457.094 86.75 455.531 87.0625C455.344 90.5 455.312 93.2812 455.438 95.4062C455.625 97.4688 455.875 99.0625 456.188 100.188C456.5 101.5 456.875 102.438 457.312 103C457.875 103.562 459 104.031 460.688 104.406C462.375 104.719 464.281 104.844 466.406 104.781C468.594 104.656 470.812 104.281 473.062 103.656C475.312 103.031 477.312 102 479.062 100.562C480.375 99.375 481.781 97.875 483.281 96.0625C484.531 94.5 485.906 92.5312 487.406 90.1562C488.969 87.7812 490.5 84.9062 492 81.5312C491.75 84.3438 491.562 86.6875 491.438 88.5625C491.375 90.375 491.281 91.8438 491.156 92.9688C491.031 94.2812 490.938 95.2812 490.875 95.9688C490.875 96.7188 490.781 97.7812 490.594 99.1562C490.469 100.344 490.25 101.969 489.938 104.031C489.688 106.031 489.344 108.594 488.906 111.719C485.969 111.781 483.188 111.844 480.562 111.906C477.938 111.906 475.625 111.938 473.625 112C471.25 112.062 469.062 112.125 467.062 112.188C465 112.188 462.719 112.281 460.219 112.469C458.031 112.594 455.438 112.781 452.438 113.031C449.5 113.281 446.25 113.625 442.688 114.062C443 109.812 443.219 105.812 443.344 102.062C443.531 98.25 443.656 94.9062 443.719 92.0312C443.781 88.6562 443.781 85.5312 443.719 82.6562C444.031 75.4688 443.906 69.6562 443.344 65.2188C442.781 60.7812 442.125 57.9375 441.375 56.6875C441 56.25 440.469 55.7188 439.781 55.0938C439.219 54.5938 438.438 54 437.438 53.3125C436.438 52.625 435.188 51.8438 433.688 50.9688ZM494.156 48.0625C496.281 48.375 498.156 48.5938 499.781 48.7188C501.469 48.8438 502.875 48.9688 504 49.0938C505.312 49.2188 506.438 49.2812 507.375 49.2812H511.031C513.469 49.2812 517.5 49.1875 523.125 49C521.75 49.4375 520.594 50.0625 519.656 50.875C518.781 51.6875 518.062 52.5312 517.5 53.4062C516.812 54.4062 516.312 55.4375 516 56.5C515.625 57.8125 515.281 59.5625 514.969 61.75C514.656 63.6875 514.344 66.2188 514.031 69.3438C513.781 72.4688 513.531 76.375 513.281 81.0625C515.969 78 518.312 75.2812 520.312 72.9062C522.375 70.5312 524.156 68.4375 525.656 66.625C527.156 64.8125 528.406 63.25 529.406 61.9375C530.469 60.625 531.344 59.5 532.031 58.5625C533.656 56.4375 534.594 55 534.844 54.25C534.906 53.8125 534.875 53.2812 534.75 52.6562C534.625 52.1562 534.438 51.5625 534.188 50.875C533.938 50.125 533.562 49.3125 533.062 48.4375C535.562 48.5625 537.688 48.6562 539.438 48.7188C541.25 48.7812 542.75 48.8438 543.938 48.9062C545.312 48.9688 546.438 49 547.312 49H551.25C552.688 49 554.562 49 556.875 49C559.188 48.9375 562.094 48.875 565.594 48.8125C563.281 49.375 561.094 50.125 559.031 51.0625C556.969 52 555.125 52.9062 553.5 53.7812C551.625 54.8438 549.875 55.9375 548.25 57.0625C546.625 58.3125 544.812 59.7812 542.812 61.4688C541.125 62.9062 539.156 64.6875 536.906 66.8125C534.656 68.875 532.219 71.2812 529.594 74.0312C532.406 79.5312 534.844 84.0625 536.906 87.625C539.031 91.125 540.812 93.9375 542.25 96.0625C543.875 98.5625 545.25 100.469 546.375 101.781C547.5 102.969 548.812 104.188 550.312 105.438C551.562 106.5 553.125 107.688 555 109C556.875 110.25 559.031 111.469 561.469 112.656L534.75 113.969C535.125 113.469 535.344 112.875 535.406 112.188C535.531 111.438 535.594 110.75 535.594 110.125C535.594 109.438 535.531 108.688 535.406 107.875C535.156 106.875 534.5 105.25 533.438 103C532.562 101.062 531.219 98.3438 529.406 94.8438C527.594 91.2812 525.094 86.5938 521.906 80.7812L513.938 89.125C513.625 91.125 513.469 92.9375 513.469 94.5625C513.469 96.1875 513.531 97.5312 513.656 98.5938C513.844 99.9062 514.094 101.031 514.406 101.969C514.781 102.906 515.312 103.969 516 105.156C516.562 106.219 517.312 107.469 518.25 108.906C519.188 110.344 520.375 111.938 521.812 113.688C520.375 113.312 518.938 113.062 517.5 112.938C516.062 112.75 514.75 112.625 513.562 112.562C512.188 112.5 510.875 112.531 509.625 112.656C508.312 112.781 506.781 112.969 505.031 113.219C503.531 113.469 501.688 113.781 499.5 114.156C497.312 114.531 494.812 115 492 115.562C493.375 114.75 494.469 113.875 495.281 112.938C496.094 112 496.75 111.094 497.25 110.219C497.812 109.219 498.188 108.25 498.375 107.312C498.5 106.5 498.594 104.75 498.656 102.062C498.781 99.375 498.844 96.25 498.844 92.6875C498.906 89.0625 498.906 85.25 498.844 81.25C498.781 77.25 498.719 73.5 498.656 70C498.594 66.5 498.5 63.5312 498.375 61.0938C498.312 58.5938 498.25 57.0625 498.188 56.5C498 55.625 497.75 54.6875 497.438 53.6875C497.125 52.8125 496.688 51.9062 496.125 50.9688C495.625 49.9688 494.969 49 494.156 48.0625Z" fill="black"/>
<path d="M74 13.5022C72.5984 13.5022 71.2813 14.0977 70.2875 15.1861C69.7992 15.7194 69.4119 16.3532 69.1481 17.051C68.8842 17.7489 68.7489 18.4969 68.75 19.2522C68.75 20.7873 69.2984 22.2299 70.2875 23.3183C70.7744 23.8531 71.3531 24.2772 71.9902 24.5662C72.6274 24.8552 73.3104 25.0034 74 25.0022C75.4016 25.0022 76.7188 24.4015 77.7125 23.3183C78.7063 22.2299 79.25 20.7873 79.25 19.2522C79.25 17.7172 78.7063 16.2745 77.7125 15.1861C76.7188 14.0977 75.4016 13.5022 74 13.5022ZM90.0594 11.5564C89.1769 9.32771 87.9045 7.30977 86.3141 5.61649C84.7184 3.90792 82.8373 2.55184 80.7734 1.6223C78.6266 0.646849 76.3484 0.153992 74 0.153992C71.6516 0.153992 69.3734 0.646849 67.2266 1.61716C65.15 2.55667 63.2891 3.90176 61.6859 5.61136C60.0965 7.30558 58.8243 9.32329 57.9406 11.5513C57.0266 13.8616 56.5625 16.3156 56.5625 18.8415C56.5625 22.466 57.3547 26.0752 58.9109 29.556C60.1625 32.354 61.9109 35.0801 64.1141 37.6727C67.8781 42.0982 71.825 44.8038 72.9453 45.5277C73.2633 45.7333 73.626 45.8415 73.9953 45.8408C74.3609 45.8408 74.7219 45.7381 75.0453 45.5277C76.1656 44.8038 80.1125 42.0982 83.8766 37.6727C86.0797 35.0852 87.8281 32.354 89.0797 29.556C90.6453 26.0803 91.4375 22.4763 91.4375 18.8466C91.4375 16.3207 90.9734 13.8667 90.0594 11.5564ZM74 28.2879C69.4438 28.2879 65.75 24.2424 65.75 19.2522C65.75 14.262 69.4438 10.2165 74 10.2165C78.5563 10.2165 82.25 14.262 82.25 19.2522C82.25 24.2424 78.5563 28.2879 74 28.2879Z" fill="#1259CC"/>
</svg>
